<?xml version="1.0" encoding="iso-8859-1"?>
<!-- Uploaded to: SVG Repo, www.svgrepo.com, Generator: SVG Repo Mixer Tools -->
<!DOCTYPE svg PUBLIC "-//W3C//DTD SVG 1.1//EN" "http://www.w3.org/Graphics/SVG/1.1/DTD/svg11.dtd">
<svg version="1.1" id="Capa_1" xmlns="http://www.w3.org/2000/svg" xmlns:xlink="http://www.w3.org/1999/xlink" 
	 viewBox="0 0 127.011 127.011" xml:space="preserve">
<g>
	<path style="fill:#FF844E;" d="M36.619,63.315v47.432c0,5.535,4.487,10.022,10.022,10.022h30.066
		c5.535,0,10.022-4.487,10.022-10.022V63.315H36.619z"/>
	
		<rect x="65.531" y="-3.985" transform="matrix(0.9062 0.4229 -0.4229 0.9062 28.8523 -24.1023)" style="fill:#D75625;" width="6.415" height="113.9"/>
	
		<rect x="68.589" y="-3.306" transform="matrix(0.9061 0.4231 -0.4231 0.9061 29.2851 -24.6585)" style="opacity:0.15;" width="3.207" height="113.9"/>
	<path style="fill:#99C9D1;" d="M31.285,29.816v85.039c0,6.713,5.443,12.156,12.157,12.156h36.465
		c6.714,0,12.156-5.442,12.156-12.156V29.816H31.285z M86.73,110.747c0,5.535-4.487,10.022-10.022,10.022H46.642
		c-5.535,0-10.022-4.487-10.022-10.022v-75.5H86.73V110.747z"/>
	<path style="opacity:0.7;fill:#F7D153;" d="M86.73,35.247v75.5c0,5.535-4.487,10.022-10.022,10.022H46.642
		c-5.535,0-10.022-4.487-10.022-10.022v-75.5H86.73z"/>
	<path style="opacity:0.5;fill:#FF844E;" d="M36.619,63.315v47.432c0,5.535,4.487,10.022,10.022,10.022h30.066
		c5.535,0,10.022-4.487,10.022-10.022V63.315H36.619z"/>
	<path style="opacity:0.05;" d="M86.73,63.315l-1.794,46.257c0,4.833-4.166,8.751-9.305,8.751H47.718
		c-5.139,0-9.305-3.918-9.305-8.751l-1.794-46.257l0,0v47.432c0,5.535,4.487,10.022,10.022,10.022h30.066
		c5.535,0,10.022-4.487,10.022-10.022V63.315L86.73,63.315z"/>
	<circle style="fill:#D75625;" cx="75.537" cy="96.348" r="4.305"/>
	<circle style="fill:#D75625;" cx="60.271" cy="110.572" r="2.595"/>
	<circle style="fill:#D75625;" cx="68.738" cy="78.008" r="2.595"/>
	<path style="opacity:0.15;" d="M92.063,29.816l-2.724,81.235c0,6.112-4.955,11.066-11.066,11.066H45.076
		c-6.112,0-11.067-4.955-11.067-11.066l-2.724-81.235l0,0v85.039c0,6.713,5.443,12.156,12.157,12.156h36.465
		c6.714,0,12.156-5.442,12.156-12.156V29.816L92.063,29.816z"/>
</g>
</svg>